<svg xmlns="http://www.w3.org/2000/svg" viewBox="0 0 48 48"><rect width="40" height="30" x="4" y="8" fill="#6c19ff"/><rect width="3" height="12.594" x="20.062" y="16.203" fill="#ddbaff"/><path fill="#ddbaff" d="M24.469,24.969h-4.406v-8.812h4.406c2.43,0,4.406,1.977,4.406,4.406S26.898,24.969,24.469,24.969z M23.062,21.969h1.406c0.775,0,1.406-0.631,1.406-1.406s-0.631-1.406-1.406-1.406h-1.406V21.969z"/><polygon fill="#ddbaff" points="40.5,28.844 36.646,28.844 33.719,21.872 33.719,28.797 30.719,28.797 30.719,16.156 34.572,16.156 37.5,23.128 37.5,16.203 40.5,16.203"/><polygon fill="#ddbaff" points="13.754,28.844 10.463,28.844 6.5,19.21 6.5,16.203 9.5,16.203 9.5,18.616 12.176,25.123 15.219,18.581 15.219,16.203 18.219,16.203 18.219,19.245"/></svg>